<?xml version="1.0" encoding="UTF-8" standalone="no"?>
<svg width="451.556mm" height="338.667mm"
 viewBox="0 0 1280 960"
 xmlns="http://www.w3.org/2000/svg" xmlns:xlink="http://www.w3.org/1999/xlink" version="1.2" baseProfile="tiny">
<title>Smart Canvas Artwork</title>
<desc>Generated with Qt</desc>
<defs>
</defs>
<g fill="none" stroke="black" stroke-width="1" fill-rule="evenodd" stroke-linecap="square" stroke-linejoin="bevel" >

<g fill="#ffffff" fill-opacity="1" stroke="none" transform="matrix(1,0,0,1,0,0)"
font-family="Segoe UI" font-size="9" font-weight="400" font-style="normal" 
>
<rect x="0" y="0" width="1280" height="960"/>
</g>

<g fill="none" stroke="#ffffff" stroke-opacity="1" stroke-width="60" stroke-linecap="round" stroke-linejoin="round" transform="matrix(1,0,0,1,0,0)"
font-family="Segoe UI" font-size="9" font-weight="400" font-style="normal" 
>
<polyline fill="none" vector-effect="none" points="416,340 412,338 350,320 344,322 324,318 308,316 296,312 288,312 282,310 278,310 278,306 274,306 268,304 262,304 256,304 248,304 242,306 238,310 " />
</g>

<g fill="none" stroke="#000000" stroke-opacity="1" stroke-width="12" stroke-linecap="round" stroke-linejoin="round" transform="matrix(1,0,0,1,0,0)"
font-family="Segoe UI" font-size="9" font-weight="400" font-style="normal" 
>
<polyline fill="none" vector-effect="none" points="172,62 188,58 216,52 244,52 262,52 268,52 260,52 256,50 264,48 276,48 294,50 342,56 384,64 412,70 460,84 506,102 538,114 578,126 574,124 602,144 636,160 668,190 692,222 754,246 788,266 812,284 832,302 850,320 868,342 870,354 870,368 858,380 842,394 820,402 790,402 764,402 738,404 714,400 " />
</g>

<g fill="#ffffff" fill-opacity="1" stroke="none" transform="matrix(1,0,0,1,0,0)"
font-family="Segoe UI" font-size="9" font-weight="400" font-style="normal" 
>
<circle cx="644" cy="614" r="30"/>
</g>

<g fill="#ffffff" fill-opacity="1" stroke="none" transform="matrix(1,0,0,1,0,0)"
font-family="Segoe UI" font-size="9" font-weight="400" font-style="normal" 
>
<circle cx="656" cy="594" r="30"/>
</g>

<g fill="#ffffff" fill-opacity="1" stroke="#000000" stroke-opacity="1" stroke-width="12" stroke-linecap="round" stroke-linejoin="round" transform="matrix(1,0,0,1,0,0)"
font-family="Segoe UI" font-size="9" font-weight="400" font-style="normal" 
>
<polyline fill="none" vector-effect="none" points="826,346 828,342 832,338 832,330 830,324 824,318 816,310 810,300 800,288 788,280 768,270 752,260 722,242 704,228 660,202 632,176 598,164 570,150 550,138 526,130 512,128 500,122 484,114 472,110 460,106 438,98 426,96 414,94 410,90 404,88 400,86 400,92 388,106 360,124 348,140 346,150 344,160 340,174 334,188 338,198 346,204 354,212 366,220 378,226 392,230 406,234 420,238 432,238 440,238 450,240 456,240 468,240 478,244 484,244 490,248 494,248 498,248 502,248 506,248 510,248 514,248 520,250 " />
</g>

<g fill="#000000" fill-opacity="1" stroke="none" transform="matrix(1,0,0,1,0,0)"
font-family="Segoe UI" font-size="9" font-weight="400" font-style="normal" 
>
<circle cx="532" cy="258" r="6"/>
</g>

<g fill="#000000" fill-opacity="1" stroke="#000000" stroke-opacity="1" stroke-width="12" stroke-linecap="round" stroke-linejoin="round" transform="matrix(1,0,0,1,0,0)"
font-family="Segoe UI" font-size="9" font-weight="400" font-style="normal" 
>
<polyline fill="none" vector-effect="none" points="532,258 536,260 " />
</g>

<g fill="#ffffff" fill-opacity="1" stroke="none" transform="matrix(1,0,0,1,0,0)"
font-family="Segoe UI" font-size="9" font-weight="400" font-style="normal" 
>
<circle cx="486" cy="432" r="30"/>
</g>

<g fill="#ffffff" fill-opacity="1" stroke="#000000" stroke-opacity="1" stroke-width="12" stroke-linecap="round" stroke-linejoin="round" transform="matrix(1,0,0,1,0,0)"
font-family="Segoe UI" font-size="9" font-weight="400" font-style="normal" 
>
<polyline fill="none" vector-effect="none" points="534,272 536,266 " />
</g>

<g fill="#000000" fill-opacity="1" stroke="none" transform="matrix(1,0,0,1,0,0)"
font-family="Segoe UI" font-size="9" font-weight="400" font-style="normal" 
>
<circle cx="536" cy="266" r="6"/>
</g>

<g fill="#000000" fill-opacity="1" stroke="none" transform="matrix(1,0,0,1,0,0)"
font-family="Segoe UI" font-size="9" font-weight="400" font-style="normal" 
>
<circle cx="534" cy="264" r="6"/>
</g>

<g fill="#000000" fill-opacity="1" stroke="none" transform="matrix(1,0,0,1,0,0)"
font-family="Segoe UI" font-size="9" font-weight="400" font-style="normal" 
>
<circle cx="536" cy="266" r="6"/>
</g>

<g fill="#ffffff" fill-opacity="1" stroke="none" transform="matrix(1,0,0,1,0,0)"
font-family="Segoe UI" font-size="9" font-weight="400" font-style="normal" 
>
<circle cx="486" cy="428" r="30"/>
</g>

<g fill="#000000" fill-opacity="1" stroke="none" transform="matrix(1,0,0,1,0,0)"
font-family="Segoe UI" font-size="9" font-weight="400" font-style="normal" 
>
<circle cx="542" cy="264" r="6"/>
</g>

<g fill="#000000" fill-opacity="1" stroke="#000000" stroke-opacity="1" stroke-width="12" stroke-linecap="round" stroke-linejoin="round" transform="matrix(1,0,0,1,0,0)"
font-family="Segoe UI" font-size="9" font-weight="400" font-style="normal" 
>
<polyline fill="none" vector-effect="none" points="522,240 512,228 502,212 494,192 494,184 496,180 498,176 504,176 504,180 " />
</g>

<g fill="#000000" fill-opacity="1" stroke="#ffffff" stroke-opacity="1" stroke-width="60" stroke-linecap="round" stroke-linejoin="round" transform="matrix(1,0,0,1,0,0)"
font-family="Segoe UI" font-size="9" font-weight="400" font-style="normal" 
>
<polyline fill="none" vector-effect="none" points="426,370 418,358 414,354 410,352 406,350 404,346 398,344 392,342 386,340 380,340 374,340 370,340 378,344 382,344 388,344 384,342 384,346 388,348 392,348 396,348 384,346 380,346 384,348 388,348 392,348 396,348 400,348 404,348 414,352 418,352 412,350 408,350 412,352 408,350 404,352 410,356 424,358 432,360 434,364 440,366 436,366 436,370 " />
</g>

<g fill="#ffffff" fill-opacity="1" stroke="none" transform="matrix(1,0,0,1,0,0)"
font-family="Segoe UI" font-size="9" font-weight="400" font-style="normal" 
>
<circle cx="384" cy="866" r="30"/>
</g>

<g fill="#ffffff" fill-opacity="1" stroke="none" transform="matrix(1,0,0,1,0,0)"
font-family="Segoe UI" font-size="9" font-weight="400" font-style="normal" 
>
<circle cx="354" cy="884" r="30"/>
</g>
</g>
</svg>
